<?xml version="1.0" encoding="UTF-8"?>
<svg width="88px" height="88px" viewBox="0 0 88 88" version="1.1" xmlns="http://www.w3.org/2000/svg" xmlns:xlink="http://www.w3.org/1999/xlink">
    <title>图标/金刚区/便捷订餐</title>
    <g id="图标/金刚区/便捷订餐" stroke="none" fill="none" fill-rule="evenodd" stroke-width="1">
        <g id="图标/金刚区/智能客服">
            <rect id="矩形" fill="#FFFFFF" opacity="0" x="0" y="0" width="88" height="88"></rect>
            <path d="M31.18,20 C32.706,20 34.19,20.356 35.594,21.056 C36.9542746,21.7435117 38.1617329,22.6985942 39.144,23.864 C41.22,26.292 42.36,29.5 42.36,32.896 C42.36,35.636 41.808,38.246 40.76,40.444 C39.8,42.462 38.464,44.022 36.854,45.024 L38.606,62.328 C38.6115702,62.3864987 38.6142401,62.4452373 38.614,62.504 C38.614,64.266 37.6,65.804 35.756,66.83 C34.3485704,67.5864809 32.7778047,67.9880972 31.18,68 C29.5781528,67.9853671 28.0045319,67.576679 26.598,66.81 C24.758,65.774 23.746,64.246 23.746,62.506 C23.746,62.446 23.75,62.386 23.756,62.326 L25.51,44.986 C23.93,43.958 22.61,42.39 21.642,40.39 C20.582,38.2 20,35.54 20,32.896 C20,29.5 21.142,26.292 23.216,23.864 C24.1988516,22.6983818 25.4070072,21.7432858 26.768,21.056 C28.1358538,20.3638295 29.64699,20.0021433 31.18,20 L31.18,20 Z M56.82,68 C55.2181528,67.9853671 53.6445318,67.576679 52.238,66.81 C50.398,65.774 49.386,64.246 49.386,62.506 C49.386,62.446 49.388,62.386 49.394,62.326 L51.122,45.268 C50.062,44.722 49.002,43.768 48.084,42.498 C46.508,40.318 45.64,37.564 45.64,34.746 L45.64,23.644 C45.64,22.654 46.452,21.85 47.454,21.85 C48.454,21.85 49.268,22.654 49.268,23.644 L49.268,34.746 C49.268,36.746 49.858,38.704 50.928,40.256 C51.874,41.632 52.836,42.162 53.096,42.208 C53.6,42.214 54.08,42.428 54.418,42.798 C54.7608737,43.1714943 54.9282024,43.6734804 54.878,44.178 L53.018,62.568 C53.104,63.528 55.192,64.414 56.818,64.414 C57.746,64.414 58.842,64.138 59.612,63.708 C60.056,63.462 60.58,63.068 60.622,62.568 L58.762,44.178 C58.7117976,43.6734804 58.8791263,43.1714943 59.222,42.798 C59.5619379,42.4278939 60.0395112,42.2144331 60.542,42.208 C60.802,42.162 61.766,41.632 62.712,40.256 C63.782,38.704 64.372,36.746 64.372,34.746 L64.372,23.644 C64.372,22.654 65.184,21.85 66.186,21.85 C67.186,21.85 68,22.654 68,23.644 L68,34.746 C68,37.564 67.132,40.316 65.554,42.498 C64.636,43.768 63.578,44.722 62.518,45.268 L64.244,62.328 C64.2503382,62.3871263 64.2536759,62.4465358 64.254,62.506 C64.254,64.266 63.24,65.802 61.396,66.83 C59.9885704,67.5864809 58.4178047,67.9880972 56.82,68 Z" id="形状" fill="#4E7F3E" fill-rule="nonzero"></path>
            <path d="M31.18,23.586 C29.26,23.586 27.418,24.506 25.99,26.176 C24.468,27.958 23.63,30.344 23.63,32.896 C23.63,37.256 25.506,41.15 28.192,42.372 C28.896,42.692 29.316,43.416 29.24,44.178 L27.38,62.568 C27.466,63.528 29.554,64.414 31.18,64.414 C32.108,64.414 33.204,64.138 33.974,63.708 C34.416,63.462 34.942,63.068 34.982,62.568 L33.122,44.178 C33.0448962,43.3921489 33.491834,42.648607 34.222,42.348 C35.892,41.654 36.914,40.098 37.476,38.918 C38.286,37.218 38.732,35.08 38.732,32.898 C38.732,30.344 37.892,27.958 36.372,26.178 C34.944,24.506 33.1,23.586 31.18,23.586 L31.18,23.586 Z" id="路径" fill="#FEF4DA" fill-rule="nonzero"></path>
            <path d="M53.98,36.5400402 C53.5015472,36.5426595 53.0416349,36.3551417 52.7014424,36.0186999 C52.3612498,35.682258 52.1686448,35.2244529 52.166,34.746 L52.166,23.644 C52.166,22.654 52.978,21.85 53.98,21.85 C54.982,21.85 55.796,22.654 55.796,23.644 L55.796,34.746 C55.7933565,35.2248015 55.6004766,35.6829114 55.2598507,36.0194108 C54.9192248,36.3559102 54.4587981,36.5431923 53.98,36.5400402 L53.98,36.5400402 Z M59.6,36.5400279 C59.1215472,36.5426595 58.661635,36.3551417 58.3214424,36.0186999 C57.9812498,35.682258 57.7886449,35.2244529 57.786,34.746 L57.786,23.644 C57.786,22.654 58.598,21.85 59.6,21.85 C60.602,21.85 61.414,22.654 61.414,23.644 L61.414,34.746 C61.4113551,35.2244529 61.2187502,35.682258 60.8785576,36.0186999 C60.538365,36.3551417 60.0784528,36.5426595 59.6,36.5400279 L59.6,36.5400279 Z" id="形状" fill="#D49B07" fill-rule="nonzero"></path>
        </g>
    </g>
</svg>