<?xml version="1.0" encoding="UTF-8"?>
<svg width="49px" height="50px" viewBox="0 0 49 50" version="1.1" xmlns="http://www.w3.org/2000/svg" xmlns:xlink="http://www.w3.org/1999/xlink">
    <title>图标/科室/基础/外科</title>
    <g id="图标/科室/基础/外科" stroke="none" fill="none" transform="translate(1, 1)" fill-rule="evenodd" stroke-width="1">
        <g id="编组" transform="translate(-1, -1)">
            <rect id="矩形" fill="#FFD5C7" transform="translate(24.4681, 25.1672) rotate(-315) translate(-24.4681, -25.1672)" x="15.3799392" y="0" width="18.1762918" height="50.3343465" rx="9.0881459"></rect>
            <path d="M15.4068482,13.9455061 L15.3987737,9.0803444 C15.3987737,4.06110002 19.4676752,-0.00780149436 24.4869196,-0.00780149436 C29.506164,-0.00780149436 33.5750655,4.06110002 33.5750655,9.0803444 L33.58314,13.9455061 M33.544925,36.4437146 L33.5750655,41.2383991 C33.5750655,46.2576435 29.506164,50.326545 24.4869196,50.326545 C19.4676752,50.326545 15.3987737,46.2576435 15.3987737,41.2383991 L15.3686332,36.4437146" id="形状" fill="#FFD5C7" transform="translate(24.4759, 25.1594) rotate(-585) translate(-24.4759, -25.1594)"></path>
            <path d="M27.9635258,16.5805471 L20.9726444,16.5805471 C20.0913389,16.5805471 19.3768997,17.2949863 19.3768997,18.1762918 L19.3768997,32.1580547 C19.3768997,33.0393602 20.0913389,33.7537994 20.9726444,33.7537994 L27.9635258,33.7537994 C28.8448313,33.7537994 29.5592705,33.0393602 29.5592705,32.1580547 L29.5592705,18.1762918 C29.5592705,17.2949863 28.8448313,16.5805471 27.9635258,16.5805471 Z M26.367,19.772 L26.367,30.562 L22.568,30.562 L22.568,19.772 L26.367,19.772 Z" id="矩形" fill="#C26B54" fill-rule="nonzero" transform="translate(24.4681, 25.1672) rotate(-315) translate(-24.4681, -25.1672)"></path>
        </g>
    </g>
</svg>